<?xml version="1.0" standalone="no"?>
<!DOCTYPE svg PUBLIC "-//W3C//DTD SVG 20010904//EN"
 "http://www.w3.org/TR/2001/REC-SVG-20010904/DTD/svg10.dtd">
<svg version="1.0" xmlns="http://www.w3.org/2000/svg"
 width="1044.000000pt" height="1280.000000pt" viewBox="0 0 1044.000000 1280.000000"
 preserveAspectRatio="xMidYMid meet">
<metadata>
</metadata>
<g transform="translate(0.000000,1280.000000) scale(0.100000,-0.100000)"
fill="#42c0f3" stroke="none">
<path d="M4914 12760 c-10 -10 -8 -43 21 -295 62 -534 68 -620 60 -835 -9
-280 -60 -674 -130 -1010 -40 -190 -57 -270 -70 -320 -8 -30 -25 -100 -39
-155 -13 -55 -36 -145 -51 -200 -15 -55 -33 -122 -40 -150 -7 -27 -30 -106
-50 -175 -21 -69 -43 -147 -51 -175 -8 -27 -18 -61 -23 -75 -5 -14 -28 -86
-51 -160 -23 -74 -48 -150 -56 -168 -8 -18 -14 -40 -14 -48 0 -9 -7 -31 -16
-49 -27 -57 -16 -84 46 -117 318 -169 661 -453 916 -758 37 -44 74 -80 83 -80
17 0 153 134 213 210 114 147 282 418 502 813 52 94 77 137 290 505 119 205
216 375 216 377 0 2 15 30 34 62 113 196 341 649 414 823 89 212 123 323 129
421 5 71 3 83 -21 134 -67 136 -363 392 -766 662 -304 203 -665 420 -920 554
-8 4 -37 18 -65 30 -27 12 -68 30 -91 40 -23 11 -48 19 -56 19 -8 0 -18 4 -23
9 -12 12 -202 75 -304 102 -88 22 -75 21 -87 9z"/>
<path d="M7653 11422 c-11 -7 -27 -43 -88 -202 -52 -134 -130 -327 -161 -395
-7 -16 -41 -95 -75 -175 -34 -80 -80 -183 -101 -230 -22 -47 -51 -110 -65
-140 -106 -234 -349 -707 -518 -1005 -15 -27 -33 -59 -39 -70 -6 -11 -45 -76
-85 -145 -66 -111 -102 -169 -186 -300 -125 -195 -292 -440 -362 -532 -24 -31
-43 -65 -43 -75 0 -10 39 -72 87 -138 47 -66 102 -142 121 -170 19 -27 79
-108 133 -180 54 -72 113 -166 134 -210 21 -44 48 -102 60 -130 26 -56 90
-211 99 -238 3 -9 12 -20 21 -23 29 -11 628 407 985 687 504 396 991 864 1291
1244 92 115 239 328 246 354 6 24 -23 107 -99 281 -11 25 -26 60 -34 78 -115
263 -203 440 -324 647 -145 247 -201 327 -376 531 -152 176 -380 396 -490 470
-97 66 -116 75 -131 66z"/>
<path d="M9588 9418 c-9 -7 -45 -49 -79 -93 -379 -482 -967 -1098 -1419 -1486
-147 -126 -384 -316 -495 -397 -69 -50 -433 -298 -466 -317 -145 -84 -150 -89
-130 -139 82 -201 111 -348 136 -679 9 -123 18 -193 26 -204 24 -28 232 -7
429 42 105 27 215 57 255 70 22 7 74 23 115 35 41 12 140 45 220 72 80 27 159
53 175 58 36 9 86 32 318 139 49 23 94 41 102 41 8 0 16 4 20 9 3 5 22 15 43
21 40 13 295 138 402 197 228 126 770 473 813 521 17 19 17 28 -2 193 -50 424
-131 924 -181 1109 -5 19 -19 76 -31 125 -46 197 -116 424 -193 625 -27 70
-33 77 -58 58z"/>
<path d="M4107 8473 c-12 -11 -8 -40 19 -130 14 -49 34 -117 44 -153 10 -36
28 -101 40 -145 12 -44 26 -96 30 -115 7 -32 18 -78 54 -220 16 -61 46 -201
70 -325 58 -300 86 -542 86 -747 0 -86 4 -167 9 -180 16 -43 295 -238 339
-238 13 0 33 27 64 83 237 424 378 917 378 1320 l0 136 -37 26 c-157 109 -603
421 -668 466 -102 71 -237 150 -312 184 -32 14 -66 30 -75 36 -21 11 -32 11
-41 2z"/>
<path d="M2865 8419 c-97 -11 -263 -43 -470 -90 -44 -10 -92 -20 -107 -24 -16
-3 -28 -12 -28 -19 0 -8 55 -64 123 -124 309 -278 689 -694 925 -1015 61 -82
252 -364 252 -371 0 -4 94 -159 111 -184 10 -13 37 -28 70 -37 30 -8 86 -24
124 -35 39 -11 95 -28 125 -37 30 -8 78 -22 105 -31 28 -8 61 -15 75 -16 l25
-1 3 125 c4 158 -32 477 -82 725 -8 39 -17 88 -21 110 -3 22 -13 72 -21 110
-8 39 -21 102 -29 140 -17 78 -69 294 -90 370 -32 117 -94 265 -119 284 -16
11 -252 65 -426 96 -189 33 -387 42 -545 24z"/>
<path d="M2075 7891 c-248 -68 -655 -292 -990 -545 -166 -125 -334 -310 -319
-349 6 -17 45 -30 119 -42 37 -6 78 -14 295 -61 41 -9 100 -22 130 -30 31 -8
76 -18 100 -23 25 -5 81 -19 125 -31 44 -12 103 -28 130 -35 84 -23 236 -81
320 -123 44 -22 105 -51 135 -65 30 -14 84 -39 120 -55 36 -17 118 -51 184
-76 74 -30 154 -70 215 -110 144 -95 223 -136 262 -136 55 1 322 51 444 85 28
7 62 16 77 19 15 3 29 15 33 26 6 18 -5 40 -150 305 -98 178 -276 449 -375
570 -173 210 -569 613 -662 671 -45 28 -102 30 -193 5z"/>
<path d="M5564 7713 c-3 -16 -12 -53 -19 -83 -33 -136 -85 -456 -85 -523 0
-38 -43 -186 -83 -289 -15 -38 -39 -98 -53 -135 -23 -58 -74 -181 -104 -248
-5 -11 -27 -65 -50 -120 -22 -55 -47 -111 -54 -125 -7 -14 -19 -44 -26 -67
-23 -74 10 -172 104 -308 35 -51 81 -142 90 -177 11 -47 34 -37 191 89 287
229 664 609 784 788 97 144 110 218 67 363 -71 236 -332 583 -581 773 -126 96
-170 111 -181 62z"/>
<path d="M10260 6984 c-58 -30 -157 -83 -220 -116 -273 -145 -966 -489 -1090
-542 -74 -32 -148 -64 -165 -71 -36 -16 -108 -45 -190 -75 -33 -13 -76 -28
-95 -36 -47 -18 -238 -78 -325 -103 -222 -63 -433 -103 -633 -121 -51 -4 -99
-13 -106 -19 -8 -7 -16 -26 -19 -44 -4 -30 -16 -80 -52 -217 -19 -74 -79 -323
-105 -440 -12 -52 -25 -110 -30 -128 -5 -19 -6 -40 -3 -48 6 -17 55 -30 143
-39 36 -3 106 -12 155 -20 181 -28 550 -72 835 -100 496 -49 1088 -39 1495 26
39 6 79 17 91 24 12 8 38 53 58 102 20 48 41 97 46 108 5 11 24 58 41 105 78
213 156 480 208 710 84 376 92 444 94 795 2 259 0 300 -13 302 -8 2 -62 -22
-120 -53z"/>
<path d="M6629 6640 c-24 -13 -81 -77 -174 -197 -200 -258 -329 -408 -500
-582 -161 -164 -348 -322 -463 -391 -39 -23 -76 -48 -83 -56 -13 -15 -8 -51
33 -277 11 -60 10 -74 -5 -116 -9 -27 -17 -54 -17 -60 0 -14 159 -15 250 -1
36 6 148 17 250 25 221 18 337 36 462 70 51 14 110 30 131 35 21 6 45 15 55
20 9 5 51 23 92 40 110 46 195 96 207 123 50 109 78 345 57 474 -12 75 -45
229 -64 303 -5 19 -18 76 -30 125 -11 50 -27 115 -35 145 -7 30 -23 96 -35
145 -41 174 -49 195 -73 195 -12 -1 -38 -9 -58 -20z"/>
<path d="M830 6631 c-25 -4 -65 -20 -90 -36 -49 -33 -157 -170 -206 -262 -17
-32 -73 -137 -125 -233 -117 -217 -190 -373 -263 -560 -32 -80 -75 -190 -97
-244 -39 -98 -45 -146 -16 -146 6 0 32 10 57 21 181 83 432 158 730 219 122
24 440 50 625 50 211 0 489 -22 568 -44 29 -8 88 -24 132 -36 44 -12 98 -28
120 -35 64 -21 148 -37 175 -34 18 3 32 17 48 49 30 56 88 135 167 225 107
121 191 265 178 303 -5 12 -209 153 -316 218 -27 16 -61 37 -75 46 -15 9 -38
23 -52 31 -14 8 -54 31 -90 51 -191 108 -419 212 -640 291 -185 66 -411 114
-600 126 -151 9 -166 9 -230 0z"/>
<path d="M3930 6169 c-206 -23 -459 -143 -665 -316 -39 -33 -71 -67 -73 -76
-3 -16 3 -17 55 -10 97 13 312 8 408 -10 127 -23 277 -47 365 -58 41 -6 91
-14 110 -19 19 -4 58 -11 85 -14 28 -4 93 -14 146 -22 l95 -16 75 25 c41 14
112 40 158 56 99 37 170 40 251 11 101 -36 105 -21 21 72 -208 227 -468 352
-786 378 -140 11 -138 11 -245 -1z"/>
<path d="M3630 5550 c-196 -13 -336 -37 -498 -87 -65 -20 -88 -32 -106 -57
-29 -39 -70 -166 -86 -271 -12 -76 -16 -350 -6 -384 3 -9 10 -68 16 -131 15
-175 59 -376 110 -510 12 -30 27 -71 34 -90 13 -34 25 -57 88 -168 45 -79 58
-69 80 63 10 61 25 128 33 150 8 23 15 47 15 55 1 8 9 33 20 55 11 22 19 45
20 50 1 28 122 254 195 365 153 231 350 422 558 542 48 28 90 54 92 58 7 12
85 268 85 279 0 16 -66 41 -160 61 -101 21 -329 31 -490 20z"/>
<path d="M1770 5149 c-30 -4 -113 -13 -185 -18 -268 -22 -676 -73 -785 -97
-164 -37 -315 -80 -365 -104 -11 -5 -47 -20 -80 -34 -78 -32 -147 -71 -169
-95 -17 -18 -18 -57 -13 -588 5 -598 10 -681 56 -853 43 -160 113 -320 139
-320 15 0 29 12 218 181 374 335 697 580 1051 800 151 94 389 207 543 259 80
26 216 60 244 60 45 0 51 21 101 339 9 51 17 97 20 101 2 3 9 45 15 93 6 48
13 92 15 99 12 32 -11 40 -285 102 -36 8 -108 25 -160 36 -52 12 -120 28 -151
36 -60 15 -122 16 -209 3z"/>
<path d="M4100 4916 c-189 -126 -477 -651 -545 -996 -29 -148 -21 -175 89
-289 105 -108 507 -430 594 -475 47 -24 253 -89 323 -101 50 -9 65 11 38 50
-50 74 -143 277 -189 415 -67 202 -114 552 -92 690 5 30 22 130 38 222 28 166
28 166 9 210 -55 128 -177 299 -213 297 -10 0 -33 -11 -52 -23z"/>
<path d="M6805 4906 c-296 -113 -698 -188 -1100 -203 -113 -4 -174 -1 -247 11
-54 9 -105 16 -114 16 -22 0 -214 -189 -214 -210 0 -23 154 -170 285 -272 314
-244 609 -408 732 -408 29 0 59 8 87 25 129 76 467 505 603 765 53 102 73 167
73 239 0 57 -2 61 -22 61 -13 0 -50 -11 -83 -24z"/>
<path d="M7317 4679 c-8 -13 -34 -55 -57 -94 -102 -167 -227 -330 -397 -513
-94 -101 -95 -103 -77 -123 28 -31 428 -322 619 -451 248 -168 391 -248 530
-297 66 -23 131 -47 144 -52 14 -6 90 -32 170 -59 80 -27 178 -60 216 -73 176
-61 253 -85 460 -145 89 -26 212 -52 246 -52 123 0 316 223 613 709 58 95 106
175 106 176 0 2 23 43 51 92 174 299 290 568 305 705 12 102 -5 125 -79 108
-23 -5 -107 -19 -187 -31 -132 -21 -182 -23 -545 -23 -404 -1 -411 -1 -975 49
-91 8 -232 20 -315 25 -82 6 -157 13 -165 15 -8 2 -87 9 -175 15 -88 6 -189
15 -225 20 -36 5 -106 12 -156 16 -89 6 -92 6 -107 -17z"/>
<path d="M4577 4483 c-18 -5 -19 -17 -15 -201 5 -224 8 -238 108 -592 76 -267
127 -415 155 -448 1 -1 37 -12 81 -24 111 -30 401 -33 514 -4 83 21 194 56
255 81 149 61 375 187 375 208 0 7 -59 47 -132 88 -440 247 -779 540 -963 827
-21 33 -48 63 -59 66 -25 7 -293 6 -319 -1z"/>
<path d="M2580 4123 c-41 -19 -88 -41 -105 -48 -16 -8 -65 -30 -108 -49 -42
-20 -80 -36 -83 -36 -3 0 -31 -12 -62 -26 -31 -14 -73 -32 -92 -40 -19 -8 -42
-19 -51 -23 -8 -5 -47 -21 -85 -37 -127 -50 -274 -135 -492 -281 -492 -332
-781 -599 -854 -787 -19 -52 -20 -63 -9 -104 32 -120 141 -349 282 -592 137
-236 249 -378 467 -592 129 -128 156 -142 167 -86 55 271 387 880 708 1298
204 266 442 523 635 684 45 38 82 77 82 86 0 9 -9 35 -20 58 -12 24 -55 120
-96 214 -78 179 -113 256 -145 324 -10 23 -19 46 -19 52 0 9 -24 23 -38 21 -4
0 -41 -16 -82 -36z"/>
<path d="M6705 3531 c-38 -20 -110 -59 -160 -86 -49 -26 -94 -51 -100 -55 -5
-4 -48 -28 -95 -52 -272 -145 -279 -150 -264 -175 6 -10 23 -40 38 -68 25 -46
189 -330 227 -393 46 -77 245 -404 273 -446 307 -480 422 -633 635 -847 91
-91 193 -186 226 -210 99 -72 137 -63 453 100 15 8 56 33 92 56 36 23 91 57
123 76 32 19 69 41 82 49 13 8 50 30 82 49 99 57 248 154 335 218 78 56 658
624 658 644 0 10 -25 24 -77 42 -43 15 -98 34 -123 42 -25 9 -54 20 -65 25
-11 6 -33 14 -50 20 -16 5 -82 27 -145 50 -63 23 -133 48 -155 55 -22 8 -65
23 -95 35 -72 28 -157 59 -197 71 -18 5 -45 16 -60 24 -15 8 -33 15 -40 15 -7
0 -27 7 -45 15 -18 8 -85 35 -148 59 -432 166 -873 406 -1200 652 -54 41 -107
74 -117 74 -10 -1 -49 -18 -88 -39z"/>
<path d="M3271 3370 c-159 -88 -400 -337 -666 -690 -454 -602 -705 -1065 -705
-1302 0 -33 8 -52 43 -96 66 -86 556 -533 756 -691 78 -61 201 -131 316 -179
55 -24 115 -50 132 -59 45 -22 63 -6 63 56 0 51 24 353 41 501 5 52 14 133 20
180 26 241 104 650 164 865 42 150 100 315 145 410 5 11 21 48 35 83 14 35 44
103 67 150 82 176 128 285 128 305 0 14 -78 99 -227 250 -126 126 -235 232
-244 237 -10 6 -32 -1 -68 -20z"/>
<path d="M4081 2833 c-12 -32 -28 -71 -36 -88 -15 -33 -43 -102 -74 -185 -11
-30 -36 -95 -55 -145 -130 -342 -294 -915 -321 -1120 -3 -27 -10 -63 -15 -80
-13 -41 -40 -337 -40 -433 0 -81 17 -260 28 -301 6 -19 25 -30 102 -58 52 -19
118 -42 145 -52 28 -10 91 -32 140 -49 50 -17 122 -43 160 -57 76 -28 194 -67
265 -89 39 -12 91 -26 254 -68 122 -31 294 -50 508 -55 262 -6 261 -7 214 75
-128 224 -258 542 -341 837 -84 300 -115 484 -220 1295 -50 382 -46 370 -105
370 -63 0 -251 86 -501 228 -31 18 -62 32 -70 32 -9 0 -24 -23 -38 -57z"/>
<path d="M5037 2873 c-4 -3 -7 -121 -7 -262 0 -312 29 -595 85 -836 8 -33 17
-76 20 -95 8 -42 42 -169 86 -320 56 -195 172 -512 255 -697 8 -18 20 -48 28
-65 8 -18 33 -73 55 -121 23 -49 41 -92 41 -96 0 -4 10 -17 23 -28 64 -60 584
-54 922 11 79 15 212 47 270 66 193 61 308 107 441 172 167 83 215 110 221
125 4 10 -35 56 -114 136 -388 395 -755 860 -1009 1280 -32 54 -69 115 -82
135 -12 20 -25 44 -29 52 -4 8 -28 52 -54 97 -26 44 -86 159 -133 253 -47 95
-90 178 -97 186 -9 12 -87 14 -464 14 -248 0 -455 -3 -458 -7z"/>
</g>
</svg>
